<svg width="200" height="200" viewBox="0 0 200 200" fill="none" xmlns="http://www.w3.org/2000/svg">
  <rect width="200" height="200" rx="20" fill="#FF7700" fill-opacity="0.1"/>
  <path d="M100 40C66.8629 40 40 66.8629 40 100C40 133.137 66.8629 160 100 160C133.137 160 160 133.137 160 100C160 66.8629 133.137 40 100 40ZM100 60C122.091 60 140 77.9086 140 100C140 122.091 122.091 140 100 140C77.9086 140 60 122.091 60 100C60 77.9086 77.9086 60 100 60Z" fill="#FF7700"/>
  <path d="M100 70C83.4315 70 70 83.4315 70 100C70 116.569 83.4315 130 100 130C116.569 130 130 116.569 130 100C130 83.4315 116.569 70 100 70ZM100 90C105.523 90 110 94.4772 110 100C110 105.523 105.523 110 100 110C94.4772 110 90 105.523 90 100C90 94.4772 94.4772 90 100 90Z" fill="#FF7700"/>
  <path d="M160 40H40V60H160V40Z" fill="#FF7700"/>
  <path d="M160 140H40V160H160V140Z" fill="#FF7700"/>
  <path d="M60 40H40V160H60V40Z" fill="#FF7700"/>
  <path d="M160 40H140V160H160V40Z" fill="#FF7700"/>
</svg>